<svg width="380" height="214" viewBox="0 0 380 214" fill="none" xmlns="http://www.w3.org/2000/svg">
<rect x="7" y="30" width="365" height="153" rx="20" fill="#F5F5F5"/>
<path d="M74.9987 98.9748L89.9486 124.881H98.9438L74.9773 83.3516L51.1743 124.881H60.148L74.9987 98.9748Z" fill="black"/>
<path d="M81.97 124.878L72.9748 124.881L70.1597 119.949L74.6505 112.124L81.97 124.878Z" fill="black"/>
<path d="M200.473 109.247C198.397 109.247 196.766 109.93 195.577 111.297C194.388 112.663 193.794 114.543 193.794 116.938C193.794 119.266 194.435 121.093 195.716 122.42C196.998 123.747 198.773 124.411 201.041 124.411C201.931 124.42 202.82 124.345 203.695 124.185C204.491 124.028 205.263 123.77 205.993 123.417V120.881C205.223 121.229 204.42 121.498 203.596 121.687C202.803 121.856 201.994 121.938 201.183 121.932C199.866 121.948 198.85 121.571 198.135 120.801C197.42 120.031 197.037 118.939 196.987 117.526H206.714V115.847C206.714 113.793 206.156 112.181 205.039 111.012C203.921 109.843 202.399 109.254 200.473 109.247ZM197.041 115.278C197.157 114.08 197.514 113.167 198.113 112.54C198.42 112.226 198.789 111.98 199.197 111.818C199.605 111.657 200.042 111.583 200.481 111.603C200.912 111.58 201.344 111.651 201.746 111.812C202.147 111.973 202.509 112.22 202.805 112.535C203.368 113.155 203.659 114.069 203.677 115.278H197.041Z" fill="#000205"/>
<path d="M288.976 109.247C286.901 109.247 285.269 109.93 284.08 111.297C282.892 112.663 282.297 114.543 282.297 116.938C282.297 119.266 282.937 121.093 284.217 122.42C285.497 123.747 287.273 124.411 289.544 124.411C290.434 124.42 291.323 124.345 292.199 124.185C292.993 124.028 293.765 123.77 294.494 123.417V120.881C293.724 121.229 292.922 121.499 292.1 121.687C291.306 121.856 290.497 121.938 289.687 121.932C288.375 121.932 287.358 121.55 286.638 120.787C285.918 120.024 285.534 118.933 285.488 117.513H295.218V115.834C295.218 113.78 294.659 112.168 293.542 110.999C292.425 109.829 290.903 109.245 288.976 109.247ZM285.539 115.278C285.653 114.08 286.011 113.167 286.611 112.54C286.918 112.226 287.288 111.98 287.696 111.818C288.105 111.657 288.543 111.583 288.981 111.603C289.413 111.58 289.845 111.651 290.246 111.812C290.648 111.973 291.009 112.22 291.306 112.535C291.869 113.155 292.159 114.069 292.177 115.278H285.539Z" fill="#000205"/>
<path d="M306.776 111.839C307.632 111.839 308.714 112.096 310.023 112.608L310.961 110.107C309.655 109.519 308.235 109.225 306.803 109.247C304.533 109.247 302.797 109.909 301.596 111.232C300.395 112.556 299.794 114.447 299.794 116.906C299.794 119.322 300.368 121.175 301.516 122.466C302.663 123.757 304.342 124.404 306.551 124.406C307.32 124.417 308.089 124.346 308.843 124.194C309.467 124.053 310.066 123.816 310.618 123.492V120.782C309.423 121.46 308.072 121.815 306.698 121.814C305.483 121.814 304.561 121.401 303.931 120.575C303.302 119.75 302.988 118.517 302.988 116.879C302.988 113.521 304.25 111.841 306.776 111.839Z" fill="#000205"/>
<path d="M188.311 100.068H185.209V124.143H188.311V100.068Z" fill="black"/>
<path d="M224.536 104.804H221.434V124.14H224.536V104.804Z" fill="black"/>
<path d="M232.324 104.804H225.98V107.528H232.324V104.804Z" fill="#000205"/>
<path d="M232.324 113.44H225.98V116.164H232.324V113.44Z" fill="#000205"/>
<path d="M240.521 109.521H237.418V124.142H240.521V109.521Z" fill="black"/>
<path d="M272.919 108.737H269.817V124.14H272.919V108.737Z" fill="black"/>
<path d="M278.622 104.61H264.114V107.718H278.622V104.61Z" fill="black"/>
<path d="M125.618 100.065L124.296 103.625L131.19 124.14H134.541L125.618 100.065Z" fill="black"/>
<path d="M122.801 116.046L124.227 111.939L122.782 107.697L116.669 124.14H119.994L121.857 118.77H125.605V116.046H124.685H122.801Z" fill="black"/>
<path d="M138.678 124.14H141.78V116.626L138.678 108.479V124.14Z" fill="black"/>
<path d="M158.99 110.572C158.99 110.572 157.988 109.266 155.382 109.25C155.382 109.25 152.215 108.936 150.668 111.549H150.456C150.456 111.549 149.875 109.513 146.494 109.231C146.494 109.231 143.523 108.89 141.748 111.334L142.609 112.946C142.609 112.946 143.228 111.85 145.043 111.78C145.043 111.78 146.955 111.477 147.604 113.33C147.604 113.33 147.949 113.714 147.856 116.632V124.129H150.971V116.876C150.971 116.876 150.703 113.427 152.424 112.31C152.424 112.31 153.301 111.625 154.853 111.794C154.853 111.794 156.577 111.794 156.963 113.817C156.963 113.817 157.146 114.491 157.084 116.522V124.126H160.197V114.894C160.197 114.894 160.347 111.882 158.99 110.572Z" fill="black"/>
<path d="M238.971 107.286C239.887 107.286 240.63 106.542 240.63 105.623C240.63 104.705 239.887 103.96 238.971 103.96C238.054 103.96 237.311 104.705 237.311 105.623C237.311 106.542 238.054 107.286 238.971 107.286Z" fill="black"/>
<path d="M179.737 116.387C179.703 115.09 179.459 113.807 179.013 112.589C178.698 111.703 178.139 110.925 177.4 110.344C176.661 109.764 175.772 109.406 174.838 109.312C172.007 108.893 170.492 110.386 170.492 110.386L171.653 111.998C173.297 111.528 174.227 111.958 174.227 111.958C176.243 112.597 176.426 115.41 176.426 115.41C176.654 117.87 176.184 119.399 175.785 120.213C175.515 120.777 175.061 121.232 174.498 121.502C173.989 121.733 173.434 121.841 172.876 121.819C172.246 121.798 171.636 121.593 171.122 121.228C170.608 120.863 170.212 120.355 169.983 119.767C169.711 118.937 169.567 118.071 169.554 117.199V112.866L166.444 108.479V130.649H169.546V122.407C171.155 124.962 174.485 124.454 174.485 124.454C175.313 124.413 176.118 124.163 176.823 123.726C177.529 123.289 178.112 122.68 178.52 121.956C179.863 119.562 179.737 116.387 179.737 116.387Z" fill="black"/>
<path d="M246.869 124.14H249.971V112.766L246.869 108.479V124.14Z" fill="#000205"/>
<path d="M251.027 110.243L252.287 111.995C252.287 111.995 254.432 111.337 255.569 112.298C255.569 112.298 256.556 112.814 256.577 114.579L256.599 124.139H259.714V114.141C259.714 114.141 259.687 111.992 258.62 110.832C258.158 110.314 257.589 109.902 256.953 109.627C256.316 109.351 255.627 109.218 254.934 109.236C254.934 109.236 252.585 109.088 251.027 110.243Z" fill="#000205"/>
<path d="M315.97 101.973V124.14H319.072V104.337L315.97 101.973Z" fill="black"/>
<path d="M321.061 109.738V112.124C321.78 111.828 322.562 111.72 323.335 111.81C323.335 111.81 324.638 111.853 325.233 112.932C325.233 112.932 325.699 113.497 325.699 115.146V124.139H328.815V114.896C328.815 114.896 328.992 112.865 328.011 111.262C328.011 111.262 327.375 109.972 325.463 109.435C324.001 109.069 322.46 109.176 321.061 109.738Z" fill="black"/>
</svg>
