<svg width="60" height="60" viewBox="0 0 60 60" fill="none" xmlns="http://www.w3.org/2000/svg">
<circle cx="30" cy="30" r="30" fill="#FF5C00"/>
<path d="M40.219 32C40.3121 32 40.4028 32.0288 40.4781 32.0823C40.5533 32.1357 40.6092 32.211 40.6377 32.2974L41.1214 33.7623C41.3246 33.8591 41.519 33.968 41.7045 34.0906L43.249 33.7666C43.34 33.7476 43.4349 33.7573 43.52 33.7943C43.605 33.8313 43.6758 33.8936 43.7222 33.9723L44.9412 36.0286C44.9877 36.1072 45.0074 36.1982 44.9975 36.2885C44.9875 36.3788 44.9484 36.4636 44.8858 36.5309L43.8259 37.6709C43.8414 37.8895 43.8414 38.1088 43.8259 38.3274L44.8858 39.4691C44.9484 39.5364 44.9875 39.6212 44.9975 39.7115C45.0074 39.8018 44.9877 39.8928 44.9412 39.9714L43.7222 42.0286C43.6757 42.1071 43.6048 42.1693 43.5198 42.2061C43.4348 42.2429 43.3399 42.2525 43.249 42.2334L41.7045 41.9094C41.5198 42.0311 41.3246 42.1409 41.1223 42.2377L40.6377 43.7026C40.6092 43.789 40.5533 43.8643 40.4781 43.9177C40.4028 43.9712 40.3121 44 40.219 44H37.781C37.6879 44 37.5972 43.9712 37.5219 43.9177C37.4467 43.8643 37.3908 43.789 37.3623 43.7026L36.8795 42.2386C36.6769 42.142 36.4814 42.0317 36.2946 41.9086L34.751 42.2334C34.66 42.2524 34.5651 42.2427 34.48 42.2057C34.395 42.1687 34.3242 42.1064 34.2778 42.0277L33.0588 39.9714C33.0123 39.8928 32.9926 39.8018 33.0025 39.7115C33.0125 39.6212 33.0516 39.5364 33.1142 39.4691L34.1741 38.3274C34.1587 38.1094 34.1587 37.8906 34.1741 37.6726L33.1142 36.5309C33.0516 36.4636 33.0125 36.3788 33.0025 36.2885C32.9926 36.1982 33.0123 36.1072 33.0588 36.0286L34.2778 33.9714C34.3243 33.8929 34.3952 33.8307 34.4802 33.7939C34.5652 33.7571 34.6601 33.7475 34.751 33.7666L36.2946 34.0914C36.481 33.9689 36.6763 33.8583 36.8795 33.7614L37.3632 32.2974C37.3916 32.2113 37.4472 32.1362 37.5221 32.0828C37.597 32.0293 37.6873 32.0004 37.7801 32H40.2181H40.219ZM39.8971 32.8571H38.1029L37.6033 34.3717L37.2665 34.532C37.1009 34.611 36.941 34.7009 36.788 34.8011L36.4767 35.0069L34.8794 34.6709L33.9823 36.1863L35.0773 37.3674L35.0509 37.7309C35.0383 37.9101 35.0383 38.0899 35.0509 38.2691L35.0773 38.6326L33.9806 39.8137L34.8786 41.3291L36.4758 40.994L36.7871 41.1989C36.9401 41.2991 37.1 41.389 37.2656 41.468L37.6024 41.6283L38.1029 43.1429H39.8989L40.4002 41.6274L40.7362 41.468C40.9016 41.3892 41.0612 41.2993 41.2138 41.1989L41.5242 40.994L43.1223 41.3291L44.0194 39.8137L42.9235 38.6326L42.9499 38.2691C42.9626 38.0896 42.9626 37.9095 42.9499 37.73L42.9235 37.3666L44.0203 36.1863L43.1223 34.6709L41.5242 35.0051L41.2138 34.8011C41.0612 34.7007 40.9016 34.6108 40.7362 34.532L40.4002 34.3726L39.898 32.8571H39.8971ZM39 35.4286C39.6998 35.4286 40.3709 35.6995 40.8657 36.1817C41.3606 36.664 41.6386 37.318 41.6386 38C41.6386 38.682 41.3606 39.336 40.8657 39.8183C40.3709 40.3005 39.6998 40.5714 39 40.5714C38.3002 40.5714 37.6291 40.3005 37.1343 39.8183C36.6394 39.336 36.3614 38.682 36.3614 38C36.3614 37.318 36.6394 36.664 37.1343 36.1817C37.6291 35.6995 38.3002 35.4286 39 35.4286ZM39 36.2857C38.5335 36.2857 38.0861 36.4663 37.7562 36.7878C37.4263 37.1093 37.241 37.5453 37.241 38C37.241 38.4547 37.4263 38.8907 37.7562 39.2122C38.0861 39.5337 38.5335 39.7143 39 39.7143C39.4665 39.7143 39.9139 39.5337 40.2438 39.2122C40.5737 38.8907 40.759 38.4547 40.759 38C40.759 37.5453 40.5737 37.1093 40.2438 36.7878C39.9139 36.4663 39.4665 36.2857 39 36.2857Z" fill="white"/>
<path d="M28.9935 33.1193C30.6131 33.1193 31.9261 31.8063 31.9261 30.1866C31.9261 28.5669 30.6131 27.2539 28.9935 27.2539C27.3738 27.2539 26.0608 28.5669 26.0608 30.1866C26.0608 31.8063 27.3738 33.1193 28.9935 33.1193Z" stroke="white" stroke-width="1.5" stroke-linecap="round" stroke-linejoin="round"/>
<path opacity="0.7" d="M23.8615 38.9844C25.2545 37.6647 26.4276 36.9315 29.0303 36.7849M41.4575 29.4532C41.4575 28.2801 41.4942 24.6876 41.3109 23.2212C41.2009 22.0115 40.871 20.3619 39.368 19.4088C38.4515 18.9322 37.5717 18.4923 33.356 18.4556M24.5213 18.4556C21.3687 18.4556 18.9126 18.7122 17.7028 20.2152C16.6764 21.6185 16.7365 23.2212 16.6398 23.7344C16.4198 26.4838 16.5664 36.0883 16.5664 37.7013C16.5664 39.3876 16.4565 42.8144 18.7659 43.9699C20.7455 44.9597 22.7984 44.8131 29.7635 44.8497M28.7737 15.523C27.8939 15.523 27.1607 15.523 26.4276 16.2928C25.8044 16.8793 25.8997 17.3969 25.6577 18.309C25.3146 19.592 25.1445 20.2695 25.6211 20.8018C26.058 21.3736 26.7927 21.3766 27.4423 21.378H27.454C28.0772 21.422 30.1711 21.4015 30.7899 21.378C31.4527 21.3516 31.9879 21.315 32.4395 20.7285C32.8428 20.205 32.6038 19.3325 32.3662 18.419C32.1316 17.5186 32.2196 17.0626 31.5964 16.2928C30.7166 15.413 29.6535 15.523 28.7737 15.523Z" stroke="white" stroke-width="1.5" stroke-linecap="round" stroke-linejoin="round"/>
</svg>
