<svg width="60" height="60" viewBox="0 0 60 60" fill="none" xmlns="http://www.w3.org/2000/svg">
<circle cx="30" cy="30" r="30" fill="#FF5C00"/>
<path d="M28.9375 34.25H22.5625C21.7171 34.25 20.9064 34.5858 20.3086 35.1836C19.7108 35.7814 19.375 36.5921 19.375 37.4375V39.5625H21.5V37.4375C21.5 37.1557 21.6119 36.8855 21.8112 36.6862C22.0105 36.4869 22.2807 36.375 22.5625 36.375H28.9375C29.2193 36.375 29.4895 36.4869 29.6888 36.6862C29.8881 36.8855 30 37.1557 30 37.4375V39.5625H32.125V37.4375C32.125 36.5921 31.7892 35.7814 31.1914 35.1836C30.5936 34.5858 29.7829 34.25 28.9375 34.25ZM25.75 33.1875C26.5906 33.1875 27.4123 32.9382 28.1112 32.4712C28.8101 32.0043 29.3548 31.3405 29.6765 30.5639C29.9982 29.7873 30.0823 28.9328 29.9183 28.1084C29.7544 27.2839 29.3496 26.5267 28.7552 25.9323C28.1608 25.3379 27.4036 24.9332 26.5791 24.7692C25.7547 24.6052 24.9002 24.6893 24.1236 25.011C23.347 25.3327 22.6833 25.8774 22.2163 26.5763C21.7493 27.2752 21.5 28.0969 21.5 28.9375C21.5 30.0647 21.9478 31.1457 22.7448 31.9427C23.5418 32.7397 24.6228 33.1875 25.75 33.1875ZM25.75 26.8125C26.1703 26.8125 26.5811 26.9371 26.9306 27.1706C27.28 27.4041 27.5524 27.736 27.7132 28.1243C27.8741 28.5126 27.9162 28.9399 27.8342 29.3521C27.7522 29.7643 27.5498 30.1429 27.2526 30.4401C26.9554 30.7373 26.5768 30.9397 26.1646 31.0217C25.7524 31.1037 25.3251 31.0616 24.9368 30.9007C24.5485 30.7399 24.2166 30.4675 23.9831 30.1181C23.7496 29.7686 23.625 29.3578 23.625 28.9375C23.625 28.3739 23.8489 27.8334 24.2474 27.4349C24.6459 27.0364 25.1864 26.8125 25.75 26.8125Z" fill="white"/>
<path opacity="0.7" d="M43.75 30C43.1977 30 42.75 30.4477 42.75 31V41.75C42.75 42.3023 42.3023 42.75 41.75 42.75H18.25C17.6977 42.75 17.25 42.3023 17.25 41.75V22.5C17.25 21.9477 17.6977 21.5 18.25 21.5H31.125C31.6773 21.5 32.125 21.0523 32.125 20.5V20.375C32.125 19.8227 31.6773 19.375 31.125 19.375H17.25C16.6864 19.375 16.1459 19.5989 15.7474 19.9974C15.3489 20.3959 15.125 20.9364 15.125 21.5V42.75C15.125 43.3136 15.3489 43.8541 15.7474 44.2526C16.1459 44.6511 16.6864 44.875 17.25 44.875H42.75C43.3136 44.875 43.8541 44.6511 44.2526 44.2526C44.6511 43.8541 44.875 43.3136 44.875 42.75V31C44.875 30.4477 44.4273 30 43.875 30H43.75Z" fill="white"/>
<path d="M34.25 33.1875H40.625V35.3125H34.25V33.1875ZM36.375 37.4375H40.625V39.5625H36.375V37.4375Z" fill="white"/>
<path d="M41.281 17.25C41.3717 17.25 41.46 17.2781 41.5333 17.3301C41.6066 17.3822 41.661 17.4555 41.6888 17.5397L42.1599 18.9664C42.3578 19.0607 42.5471 19.1667 42.7279 19.2861L44.2321 18.9706C44.3208 18.9521 44.4132 18.9616 44.496 18.9976C44.5788 19.0336 44.6478 19.0943 44.6929 19.1709L45.8802 21.1737C45.9255 21.2503 45.9447 21.3389 45.935 21.4268C45.9253 21.5148 45.8872 21.5974 45.8262 21.6629L44.794 22.7732C44.809 22.9861 44.809 23.1997 44.794 23.4127L45.8262 24.5246C45.8872 24.5901 45.9253 24.6727 45.935 24.7607C45.9447 24.8486 45.9255 24.9372 45.8802 25.0138L44.6929 27.0174C44.6476 27.0939 44.5786 27.1544 44.4958 27.1903C44.413 27.2261 44.3207 27.2355 44.2321 27.2169L42.7279 26.9014C42.548 27.0199 42.3578 27.1268 42.1608 27.2211L41.6888 28.6478C41.661 28.7319 41.6066 28.8053 41.5333 28.8574C41.46 28.9094 41.3717 28.9375 41.281 28.9375H38.9065C38.8158 28.9375 38.7275 28.9094 38.6542 28.8574C38.5809 28.8053 38.5265 28.7319 38.4987 28.6478L38.0284 27.2219C37.8311 27.1279 37.6408 27.0205 37.4588 26.9005L35.9554 27.2169C35.8667 27.2354 35.7743 27.2259 35.6915 27.1899C35.6087 27.1539 35.5397 27.0932 35.4946 27.0166L34.3073 25.0138C34.262 24.9372 34.2428 24.8486 34.2525 24.7607C34.2622 24.6727 34.3003 24.5901 34.3613 24.5246L35.3935 23.4127C35.3785 23.2003 35.3785 22.9872 35.3935 22.7748L34.3613 21.6629C34.3003 21.5974 34.2622 21.5148 34.2525 21.4268C34.2428 21.3389 34.262 21.2503 34.3073 21.1737L35.4946 19.1701C35.5399 19.0936 35.6089 19.0331 35.6917 18.9972C35.7745 18.9614 35.8668 18.952 35.9554 18.9706L37.4588 19.287C37.6404 19.1676 37.8306 19.0599 38.0284 18.9656L38.4996 17.5397C38.5272 17.4558 38.5814 17.3826 38.6543 17.3306C38.7273 17.2786 38.8152 17.2504 38.9056 17.25H41.2802H41.281ZM40.9675 18.0848H39.22L38.7334 19.56L38.4054 19.7161C38.2441 19.793 38.0884 19.8806 37.9394 19.9782L37.6361 20.1786L36.0805 19.8513L35.2067 21.3273L36.2732 22.4777L36.2475 22.8316C36.2352 23.0062 36.2352 23.1813 36.2475 23.3559L36.2732 23.7098L35.205 24.8602L36.0796 26.3362L37.6353 26.0098L37.9385 26.2093C38.0875 26.3069 38.2432 26.3945 38.4045 26.4714L38.7326 26.6275L39.22 28.1027H40.9692L41.4575 26.6267L41.7847 26.4714C41.9458 26.3947 42.1013 26.3071 42.2499 26.2093L42.5522 26.0098L44.1087 26.3362L44.9825 24.8602L43.9151 23.7098L43.9408 23.3559C43.9532 23.1811 43.9532 23.0056 43.9408 22.8308L43.9151 22.4768L44.9833 21.3273L44.1087 19.8513L42.5522 20.1769L42.2499 19.9782C42.1013 19.8804 41.9458 19.7928 41.7847 19.7161L41.4575 19.5608L40.9684 18.0848H40.9675ZM40.0937 20.5893C40.7753 20.5893 41.429 20.8531 41.9109 21.3228C42.3929 21.7925 42.6636 22.4295 42.6636 23.0937C42.6636 23.758 42.3929 24.395 41.9109 24.8647C41.429 25.3344 40.7753 25.5982 40.0937 25.5982C39.4122 25.5982 38.7585 25.3344 38.2766 24.8647C37.7946 24.395 37.5239 23.758 37.5239 23.0937C37.5239 22.4295 37.7946 21.7925 38.2766 21.3228C38.7585 20.8531 39.4122 20.5893 40.0937 20.5893ZM40.0937 21.4241C39.6394 21.4241 39.2036 21.6 38.8823 21.9131C38.561 22.2263 38.3805 22.6509 38.3805 23.0937C38.3805 23.5366 38.561 23.9612 38.8823 24.2744C39.2036 24.5875 39.6394 24.7634 40.0937 24.7634C40.5481 24.7634 40.9839 24.5875 41.3052 24.2744C41.6265 23.9612 41.807 23.5366 41.807 23.0937C41.807 22.6509 41.6265 22.2263 41.3052 21.9131C40.9839 21.6 40.5481 21.4241 40.0937 21.4241Z" fill="white"/>
</svg>
