<svg width="234" height="153" viewBox="0 0 234 153" fill="none" xmlns="http://www.w3.org/2000/svg">
<rect width="234" height="153" rx="20" fill="#F5F5F5"/>
<path d="M93.8778 88.5401C94.8533 91.8044 96.9785 93.7885 101.169 93.7885C104.615 93.7885 107.082 92.2157 107.082 89.4728C107.082 86.7301 104.213 85.858 99.9625 84.8095L97.8373 84.2271C92.8423 83.0021 89.1085 80.7283 89.1085 75.4219C89.1085 70.1156 93.9321 66.4429 100.65 66.4429C107.368 66.4429 111.675 69.3568 112.363 75.364H106.851C105.99 72.624 103.979 71.109 100.479 71.109C96.8046 71.109 95.0246 72.624 95.0246 74.8976C95.0246 77.4032 96.8046 78.104 100.479 79.2133L103.694 80.1461C109.724 81.8955 112.882 83.7609 112.882 88.8906C112.882 94.7792 107.887 98.5677 100.995 98.5677C93.6441 98.5677 89.3395 95.3613 88.1328 88.5401H93.875H93.8778Z" fill="black"/>
<path d="M146.476 82.6516C146.476 91.9811 140.791 98.6258 131.143 98.6258C121.496 98.6258 115.984 91.9784 115.984 82.6516C115.984 73.3248 121.841 66.4429 131.257 66.4429C140.674 66.4429 146.473 73.1483 146.473 82.6516H146.476ZM122.129 82.5937C122.129 89.4149 125.344 93.7306 131.086 93.7306C136.828 93.7306 140.1 89.4149 140.1 82.5937C140.1 75.7724 136.771 71.3408 131.086 71.3408C125.401 71.3408 122.129 76.0621 122.129 82.5937Z" fill="black"/>
<path d="M151.759 56.1831H157.559V97.8694H151.759V56.1831Z" fill="black"/>
<path d="M172.661 97.8693L161.408 67.2593H168.012L172.721 81.1942L176.05 91.5144H176.164C177.542 87.2567 178.518 85.0437 179.896 80.5541L184.317 67.262H190.576L178.977 97.872H172.661V97.8693Z" fill="black"/>
<path d="M57.8746 57.0076L43.9755 71.1206C42.8845 72.2284 42.8845 74.0244 43.9755 75.1322C45.0665 76.24 46.8353 76.24 47.9263 75.1322L61.8255 61.0192C62.9165 59.9115 62.9165 58.1154 61.8255 57.0076C60.7345 55.8998 58.9655 55.8998 57.8746 57.0076Z" fill="black"/>
<path d="M69.4504 68.761L55.5512 82.874C54.4602 83.9818 54.4602 85.7778 55.5512 86.8856C56.6422 87.9934 58.411 87.9934 59.502 86.8856L73.4012 72.7726C74.4922 71.6649 74.4922 69.8688 73.4012 68.761C72.3102 67.6532 70.5414 67.6532 69.4504 68.761Z" fill="black"/>
<path d="M59.4894 67.115L45.5902 81.2279C44.4992 82.3357 44.4992 84.1319 45.5902 85.2397C46.6812 86.3475 48.4501 86.3475 49.5411 85.2397L63.4402 71.1267C64.5312 70.0189 64.5312 68.2228 63.4402 67.115C62.3492 66.0072 60.5804 66.0072 59.4894 67.115Z" fill="black"/>
<path d="M71.0645 78.8684L57.1654 92.9813C56.0744 94.089 56.0744 95.8853 57.1654 96.993C58.2564 98.1008 60.0252 98.1008 61.1162 96.993L75.0154 82.8801C76.1064 81.7723 76.1064 79.9762 75.0154 78.8684C73.9244 77.7607 72.1555 77.7607 71.0645 78.8684Z" fill="black"/>
</svg>
