<svg width="60" height="60" viewBox="0 0 60 60" fill="none" xmlns="http://www.w3.org/2000/svg">
<circle cx="30" cy="30" r="30" fill="#FF5C00"/>
<path opacity="0.7" d="M27.7989 16.3496C30.9655 15.6249 34.2859 16.0345 37.1815 17.5069C40.077 18.9793 42.364 21.4212 43.6438 24.4068C44.5399 26.4974 44.9024 28.7618 44.7198 31M23.1749 18.3426C20.4759 20.1427 18.4932 22.8319 17.5715 25.9425C16.6499 29.0531 16.8477 32.3884 18.1304 35.3683C19.4132 38.3482 21.6999 40.7842 24.5927 42.2528C27.4856 43.7213 30.8017 44.1295 33.9643 43.4063M23.1749 18.3426V23.7126M23.1749 18.3426H17.7802" stroke="white" stroke-width="1.5" stroke-linecap="round" stroke-linejoin="round"/>
<path d="M27.6177 32.5248C27.6871 33.3255 28.0679 34.067 28.6783 34.5899C29.2886 35.1128 30.0798 35.3753 30.8817 35.321C33.5147 35.321 34.1457 33.8087 34.1457 32.5248C34.1457 31.241 33.0577 29.881 30.8817 29.881C28.7057 29.881 27.6177 29.0214 27.6177 27.2697C27.638 26.8668 27.7396 26.4721 27.9163 26.1093C28.0931 25.7466 28.3414 25.4234 28.6463 25.1592C28.9513 24.8949 29.3065 24.6951 29.6906 24.5716C30.0748 24.4482 30.4799 24.4037 30.8817 24.4409C31.6841 24.4064 32.4693 24.6802 33.0763 25.2062C33.6832 25.7322 34.0659 26.4706 34.1457 27.2697M30.8817 36.9497V35.5353M30.8817 22.8057V24.4366" stroke="white" stroke-width="1.5" stroke-linecap="round" stroke-linejoin="round"/>
<path d="M41.6174 32C41.7028 32 41.7859 32.0264 41.8549 32.0754C41.9239 32.1244 41.9751 32.1935 42.0012 32.2726L42.4446 33.6154C42.6309 33.7042 42.809 33.804 42.9792 33.9164L44.3949 33.6194C44.4784 33.602 44.5653 33.6109 44.6433 33.6448C44.7212 33.6787 44.7861 33.7358 44.8286 33.8079L45.9461 35.6929C45.9887 35.765 46.0068 35.8484 45.9977 35.9311C45.9886 36.0139 45.9527 36.0917 45.8953 36.1533L44.9238 37.1983C44.9379 37.3987 44.9379 37.5998 44.9238 37.8001L45.8953 38.8467C45.9527 38.9083 45.9886 38.9861 45.9977 39.0689C46.0068 39.1516 45.9887 39.235 45.9461 39.3071L44.8286 41.1929C44.786 41.2648 44.7211 41.3218 44.6431 41.3556C44.5652 41.3893 44.4783 41.3981 44.3949 41.3806L42.9792 41.0836C42.8098 41.1952 42.6309 41.2958 42.4454 41.3846L42.0012 42.7274C41.9751 42.8065 41.9239 42.8756 41.8549 42.9246C41.7859 42.9736 41.7028 43 41.6174 43H39.3826C39.2972 43 39.2141 42.9736 39.1451 42.9246C39.0761 42.8756 39.0249 42.8065 38.9988 42.7274L38.5562 41.3854C38.3705 41.2968 38.1913 41.1957 38.02 41.0829L36.6051 41.3806C36.5216 41.398 36.4347 41.3891 36.3567 41.3552C36.2788 41.3213 36.2139 41.2642 36.1714 41.1921L35.0539 39.3071C35.0113 39.235 34.9932 39.1516 35.0023 39.0689C35.0114 38.9861 35.0473 38.9083 35.1047 38.8467L36.0762 37.8001C36.0621 37.6003 36.0621 37.3997 36.0762 37.1999L35.1047 36.1533C35.0473 36.0917 35.0114 36.0139 35.0023 35.9311C34.9932 35.8484 35.0113 35.765 35.0539 35.6929L36.1714 33.8071C36.214 33.7352 36.2789 33.6782 36.3569 33.6444C36.4348 33.6107 36.5217 33.6019 36.6051 33.6194L38.02 33.9171C38.191 33.8048 38.3699 33.7034 38.5562 33.6146L38.9996 32.2726C39.0256 32.1937 39.0766 32.1248 39.1453 32.0759C39.2139 32.0269 39.2967 32.0003 39.3818 32H41.6166H41.6174ZM41.3224 32.7857H39.6776L39.2197 34.1741L38.9109 34.321C38.7591 34.3934 38.6126 34.4758 38.4723 34.5677L38.1869 34.7563L36.7228 34.4483L35.9005 35.8374L36.9042 36.9201L36.88 37.2533C36.8684 37.4176 36.8684 37.5824 36.88 37.7467L36.9042 38.0799L35.8989 39.1626L36.722 40.5517L38.1861 40.2445L38.4715 40.4323C38.6118 40.5242 38.7583 40.6066 38.9101 40.679L39.2189 40.8259L39.6776 42.2143H41.324L41.7835 40.8251L42.0915 40.679C42.2431 40.6068 42.3894 40.5243 42.5293 40.4323L42.8139 40.2445L44.2788 40.5517L45.1011 39.1626L44.0966 38.0799L44.1208 37.7467C44.1324 37.5822 44.1324 37.417 44.1208 37.2525L44.0966 36.9194L45.102 35.8374L44.2788 34.4483L42.8139 34.7547L42.5293 34.5677C42.3894 34.4757 42.2431 34.3932 42.0915 34.321L41.7835 34.1749L41.3232 32.7857H41.3224ZM40.5 35.1429C41.1415 35.1429 41.7567 35.3912 42.2103 35.8332C42.6639 36.2753 42.9187 36.8748 42.9187 37.5C42.9187 38.1252 42.6639 38.7247 42.2103 39.1668C41.7567 39.6088 41.1415 39.8571 40.5 39.8571C39.8585 39.8571 39.2433 39.6088 38.7897 39.1668C38.3361 38.7247 38.0813 38.1252 38.0813 37.5C38.0813 36.8748 38.3361 36.2753 38.7897 35.8332C39.2433 35.3912 39.8585 35.1429 40.5 35.1429ZM40.5 35.9286C40.0723 35.9286 39.6622 36.0941 39.3598 36.3888C39.0574 36.6835 38.8875 37.0832 38.8875 37.5C38.8875 37.9168 39.0574 38.3165 39.3598 38.6112C39.6622 38.9059 40.0723 39.0714 40.5 39.0714C40.9277 39.0714 41.3378 38.9059 41.6402 38.6112C41.9426 38.3165 42.1125 37.9168 42.1125 37.5C42.1125 37.0832 41.9426 36.6835 41.6402 36.3888C41.3378 36.0941 40.9277 35.9286 40.5 35.9286Z" fill="white"/>
</svg>
