<svg width="490" height="153" viewBox="0 0 490 153" fill="none" xmlns="http://www.w3.org/2000/svg">
<rect width="490" height="153" rx="20" fill="#F5F5F5"/>
<path d="M45.0881 71.834C46.6068 73.6061 47.2903 78.0806 47.3608 78.0429C50.4725 76.4179 54.0368 75.8756 57.491 76.5017C60.3086 77.0537 62.0244 78.245 63.8178 79.5785C65.6111 80.912 66.4631 81.4719 68.0075 82.0452C69.5518 82.6185 72.6149 82.6827 75.6142 82.2065C82.7026 81.0816 87.3747 81.421 91.3078 83.2352C90.7939 83.3282 90.2521 83.4501 89.6687 83.5936C86.221 82.339 81.8094 82.0452 75.857 83.1204C73.7748 83.4762 71.6538 83.5461 69.5527 83.3282C67.9168 83.0898 66.3532 82.4952 64.9723 81.5863C64.3884 81.1774 63.7482 80.69 63.0797 80.2093C62.5379 79.7663 59.7335 77.9964 57.9956 77.5809C56.2838 77.1768 54.5146 77.0753 52.7679 77.2809C51.2657 77.5093 49.808 77.969 48.4466 78.6437C47.4253 79.1938 46.5847 80.0273 46.0259 81.0439C46.1308 81.642 46.2255 82.1276 46.3099 82.5006C46.3449 82.4506 47.196 79.8509 49.1843 79.7149C51.1726 79.5789 51.865 81.8441 52.1463 83.0916C52.4183 84.7083 52.4444 86.3568 52.2239 87.9813C52.1463 88.8776 52.0692 89.8021 52.0692 90.7055C52.0528 92.1226 52.2255 93.5356 52.5827 94.907C53.1529 95.5521 53.7576 96.1618 54.3911 96.7497C53.455 95.2584 53.0049 93.3383 53.0049 90.6983C53.0049 89.838 53.0824 88.9347 53.1529 88.053C53.3839 86.3303 53.3506 84.5824 53.0541 82.8697C52.6248 80.97 51.8322 79.7432 50.7982 79.1837C52.9863 79.2125 55.0171 79.4154 56.8605 80.6271C58.704 81.8388 59.4664 83.5365 61.3918 85.3232C63.3172 87.1099 66.7829 88.9812 69.0734 89.2168C71.3638 89.4525 72.851 89.0498 74.8034 88.4194C76.7558 87.789 80.2925 86.2464 82.3242 85.6217C83.7907 85.184 85.2987 84.9003 86.824 84.7751C84.9606 85.6218 82.4416 87.6694 82.5032 89.216C82.5665 90.8078 83.3449 91.8232 82.9254 93.3653C82.5059 94.9075 81.6406 95.6603 81.6406 96.7864C74.6466 98.6578 68.87 98.2559 64.508 95.5747C61.4738 93.7036 59.1912 90.8283 58.0571 87.4488L57.8534 86.7967H56.861C57.9584 90.7768 60.5128 94.1986 64.0167 96.3823C66.9411 98.0883 70.2862 98.9378 73.6702 98.834C76.4228 98.7972 79.159 98.4044 81.8107 97.6653C81.9512 98.4455 82.128 98.4677 82.7043 99.5797C83.2807 100.692 83.6613 101.343 83.4996 102.777C80.0804 104.244 76.3987 105 72.6783 105C71.1529 104.999 69.6302 104.872 68.1257 104.62C52.8769 102.046 42.5619 87.37 45.0881 71.834ZM92.7131 85.2983C93.2745 85.2114 93.8486 85.3209 94.3386 85.6084L94.7501 85.8663C95.2375 86.1992 95.6521 86.628 95.9686 87.1262C96.2852 87.6245 96.497 88.1818 96.5913 88.7645C96.7375 89.9926 96.1926 91.2277 94.9663 92.4155C94.9238 92.4592 94.8728 92.4937 94.8164 92.517C94.76 92.5403 94.6995 92.552 94.6385 92.5511C94.5923 92.5582 94.5452 92.5582 94.4989 92.5511L85.4666 89.7689L85.3828 89.7348C85.18 90.0071 85.0721 90.3384 85.0758 90.678C85.1117 91.0377 85.1938 91.3914 85.3199 91.7302C85.6899 92.6244 85.7247 93.6221 85.4178 94.5398C85.2445 95.0554 85.0128 95.5495 84.7272 96.0124C84.2598 96.8267 84.0019 97.2746 84.6155 98.3742C84.7972 98.7286 84.9921 99.0388 85.1596 99.3108C85.7528 100.281 86.2197 101.021 86.1152 102.385C86.1041 102.501 86.0499 102.608 85.9634 102.686C85.8768 102.764 85.7642 102.807 85.6478 102.806H85.6132C85.5547 102.802 85.4975 102.787 85.4448 102.762C85.3921 102.736 85.345 102.7 85.3062 102.656C85.3899 101.279 84.9575 100.519 84.3648 99.5008C84.204 99.2089 84.0104 98.8766 83.8207 98.5031C83.2005 97.307 83.4787 96.7931 83.9319 95.938C84.2179 95.4379 84.4472 94.9074 84.6155 94.3564C84.9153 93.3917 84.881 92.354 84.5181 91.4112C84.3873 91.0414 84.3076 90.6555 84.281 90.2642C84.2691 90.0392 84.3072 89.8144 84.3927 89.6059C84.8399 88.8543 85.4589 88.2193 86.1989 87.7531C87.4165 86.8842 88.7726 86.228 90.2096 85.8123C90.6907 85.69 91.1439 85.5814 91.5697 85.4932L92.0437 85.4118L92.3813 85.3488L92.7131 85.2983ZM93.2372 86.1725H92.9922C92.3344 86.2413 91.6819 86.3546 91.0394 86.5118C89.4975 86.8822 88.0412 87.5459 86.75 88.4664C86.5196 88.6357 86.2897 88.8124 86.0664 88.9953L94.4989 91.6092H94.506C95.3708 90.6523 95.7611 89.7361 95.6707 88.8336C95.5093 87.9254 94.9952 87.1178 94.2407 86.587L93.9199 86.3904C93.642 86.2203 93.3167 86.1442 92.9922 86.1733L93.2372 86.1725ZM62.926 68.5716C62.2162 68.9801 61.4756 69.3325 60.7109 69.6255C57.3474 70.8589 54.7588 71.149 49.696 70.1239C49.8852 71.3022 49.8179 72.5073 49.4988 73.6573C49.1797 74.8072 48.6162 75.8748 47.8468 76.787C47.0378 72.6934 45.182 70.0773 44 68.8798C44.9807 68.8306 45.9578 68.727 46.9271 68.5697C58.7097 66.7507 62.0377 67.9695 62.9242 68.5716H62.926ZM64.6431 68.6074C64.6431 68.6216 64.5262 73.4253 60.7405 76.4999C60.7405 76.4999 54.7677 74.2547 49.1134 76.4999C50.2012 74.9429 50.7285 73.0628 50.609 71.1672C58.1147 72.7444 63.1284 69.7473 64.6414 68.6074H64.6431ZM86.0465 51.4939C90.1556 53.7992 93.6275 57.0895 96.1501 61.0689L96.6144 61.8252L85.4059 68.4209C85.3496 68.3279 85.2934 68.2437 85.2371 68.1485C84.1848 66.4701 82.8072 65.0193 81.1854 63.8816C79.5637 62.744 77.7307 61.9424 75.7943 61.5242C73.858 61.106 71.8575 61.0795 69.9108 61.4464C67.9641 61.8133 66.1105 62.5661 64.4593 63.6606C69.9784 57.1668 77.6315 52.8531 86.0447 51.4939H86.0465ZM83.2182 50.1174C79.5515 50.9801 76.0344 52.3865 72.7837 54.2898C67.5403 57.3705 63.0976 61.6446 59.8164 66.7649C57.269 66.5066 53.2304 66.6289 46.8066 67.6181C46.5531 67.6624 46.3139 67.697 46.0397 67.7258C46.2506 67.0612 46.4898 66.3994 46.7485 65.7469C52.5814 51.1714 68.9112 44.1738 83.2165 50.1174H83.2182Z" fill="black"/>
<path d="M190.896 69.511C197.368 69.511 202.34 73.8526 202.34 80.8364C202.34 87.8202 197.29 92.1619 190.817 92.1619C184.345 92.1619 179.453 87.8202 179.453 80.8364C179.453 73.8526 184.464 69.511 190.896 69.511ZM389.938 69.511C396.409 69.511 401.381 73.8526 401.381 80.8364C401.381 87.8202 396.331 92.1619 389.859 92.1619C383.387 92.1619 378.494 87.8202 378.494 80.8364C378.494 73.8526 383.505 69.511 389.938 69.511ZM215.268 69.511C218.543 69.511 220.871 71.0106 222.055 72.9444V69.8269H228.803V91.8452H222.055V88.7294C220.832 90.6627 218.504 92.1624 215.229 92.1624C209.862 92.1624 205.56 87.7428 205.56 80.7975C205.56 73.8522 209.862 69.511 215.268 69.511ZM312.206 69.511C318.638 69.511 323.176 73.7728 323.176 80.4815C323.175 81.1409 323.135 81.7996 323.058 82.4544H307.786C308.023 85.334 309.799 86.6768 311.969 86.6768C313.863 86.6768 314.929 85.7296 315.481 84.5459H322.663C321.6 88.8472 317.691 92.1619 312.208 92.1619C305.736 92.1619 301.079 87.8202 301.079 80.8364C301.079 73.8526 305.655 69.511 312.206 69.511ZM149.926 63.8288C156.517 63.8288 161.489 67.5382 163.067 73.5363H155.649C154.505 71.1683 152.415 69.9846 149.848 69.9846C145.705 69.9846 142.863 73.0627 142.863 77.9559C142.863 82.8491 145.705 85.9272 149.848 85.9272C152.413 85.9272 154.505 84.743 155.649 82.3755H163.068C161.489 88.3736 156.517 92.0436 149.927 92.0436C141.758 92.0436 135.997 86.2427 135.997 77.9555C135.997 69.6683 141.758 63.8288 149.926 63.8288ZM349.15 69.8269L352.267 85.5719L355.976 69.8269H363.119L366.868 85.493L369.946 69.8269H376.299L370.34 91.8452H362.883L359.41 77.5598L355.819 91.8452H348.4L342.402 69.8269H349.15ZM132.263 69.8269V75.1937L122.911 86.2821H132.461V91.8465H115.375V86.4797L124.53 75.3908H115.453V69.8269H132.263ZM278.521 64.1442L289.807 81.31V64.1442H296.555V91.8465H289.808L278.522 74.7594V91.8465H271.772V64.1442H278.521ZM419.597 69.5907V76.7336H417.742C414.546 76.7336 412.692 77.8385 412.692 81.6268V91.8473H405.943V69.8291H412.691V73.499C414.23 71.1705 416.637 69.5921 419.597 69.5921V69.5907ZM174.93 62.6445V91.8465H168.182V62.6445H174.93ZM241.415 62.6445V78.7844L248.084 69.8269H256.411L247.256 80.8759L256.49 91.8465H248.123L241.415 82.6125V91.8465H234.667V62.6445H241.415ZM335.513 64.461V69.8278H339.933V75.4311H335.513V84.2707C335.513 85.5728 336.066 86.1252 337.566 86.1252H339.972V91.8473H336.539C331.962 91.8473 328.765 89.9135 328.765 84.1914V75.4311H326.082V69.8278H328.765V64.461H335.513ZM430.553 62.6445V78.7844L437.222 69.8269H445.548L436.393 80.8759L445.627 91.8465H437.26L430.551 82.6125V91.8465H423.804V62.6445H430.553ZM190.896 75.35C188.449 75.35 186.319 77.0862 186.319 80.8351C186.319 84.5445 188.371 86.3202 190.817 86.3202C193.224 86.3202 195.474 84.5445 195.474 80.8351C195.474 77.0876 193.264 75.35 190.896 75.35ZM389.938 75.35C387.491 75.35 385.36 77.0862 385.36 80.8351C385.36 84.5445 387.412 86.3202 389.859 86.3202C392.266 86.3202 394.515 84.5445 394.515 80.8351C394.515 77.0876 392.305 75.35 389.938 75.35ZM217.241 75.3895C214.715 75.3895 212.426 77.2838 212.426 80.7943C212.426 84.3049 214.715 86.2795 217.241 86.2795C219.806 86.2795 222.055 84.3461 222.055 80.8338C222.055 77.3215 219.805 75.3908 217.241 75.3908V75.3895ZM312.127 74.9158C309.917 74.9158 308.22 76.2578 307.826 78.7041H316.27C316.27 76.2985 314.376 74.9172 312.127 74.9172V74.9158Z" fill="black"/>
</svg>
