<svg width="60" height="60" viewBox="0 0 60 60" fill="none" xmlns="http://www.w3.org/2000/svg">
<circle cx="30" cy="30" r="30" fill="#FF5C00"/>
<path d="M44.1666 28.5832C44.1524 24.1717 44.0136 21.8328 42.5062 20.3268C40.8473 18.6665 38.1755 18.6665 32.8333 18.6665H27.1666C21.8243 18.6665 19.1525 18.6665 17.4936 20.3268C15.8333 21.9858 15.8333 24.6576 15.8333 29.9998C15.8333 35.3421 15.8333 38.0139 17.4936 39.6728C19.1525 41.3332 21.8243 41.3332 27.1666 41.3332H29.2916" stroke="white" stroke-width="1.5" stroke-linecap="round"/>
<path opacity="0.7" d="M27.1667 35.6665H21.5" stroke="white" stroke-width="1.5" stroke-linecap="round"/>
<path opacity="0.7" d="M15.8333 27.1665H44.1666" stroke="white" stroke-width="1.5" stroke-linecap="round"/>
<path d="M40.219 31C40.3121 31 40.4028 31.0288 40.4781 31.0823C40.5533 31.1357 40.6092 31.211 40.6377 31.2974L41.1214 32.7623C41.3246 32.8591 41.519 32.968 41.7045 33.0906L43.249 32.7666C43.34 32.7476 43.4349 32.7573 43.52 32.7943C43.605 32.8313 43.6758 32.8936 43.7222 32.9723L44.9412 35.0286C44.9877 35.1072 45.0074 35.1982 44.9975 35.2885C44.9875 35.3788 44.9484 35.4636 44.8858 35.5309L43.8259 36.6709C43.8414 36.8895 43.8414 37.1088 43.8259 37.3274L44.8858 38.4691C44.9484 38.5364 44.9875 38.6212 44.9975 38.7115C45.0074 38.8018 44.9877 38.8928 44.9412 38.9714L43.7222 41.0286C43.6757 41.1071 43.6048 41.1693 43.5198 41.2061C43.4348 41.2429 43.3399 41.2525 43.249 41.2334L41.7045 40.9094C41.5198 41.0311 41.3246 41.1409 41.1223 41.2377L40.6377 42.7026C40.6092 42.789 40.5533 42.8643 40.4781 42.9177C40.4028 42.9712 40.3121 43 40.219 43H37.781C37.6879 43 37.5972 42.9712 37.5219 42.9177C37.4467 42.8643 37.3908 42.789 37.3623 42.7026L36.8795 41.2386C36.6769 41.142 36.4814 41.0317 36.2946 40.9086L34.751 41.2334C34.66 41.2524 34.5651 41.2427 34.48 41.2057C34.395 41.1687 34.3242 41.1064 34.2778 41.0277L33.0588 38.9714C33.0123 38.8928 32.9926 38.8018 33.0025 38.7115C33.0125 38.6212 33.0516 38.5364 33.1142 38.4691L34.1741 37.3274C34.1587 37.1094 34.1587 36.8906 34.1741 36.6726L33.1142 35.5309C33.0516 35.4636 33.0125 35.3788 33.0025 35.2885C32.9926 35.1982 33.0123 35.1072 33.0588 35.0286L34.2778 32.9714C34.3243 32.8929 34.3952 32.8307 34.4802 32.7939C34.5652 32.7571 34.6601 32.7475 34.751 32.7666L36.2946 33.0914C36.481 32.9689 36.6763 32.8583 36.8795 32.7614L37.3632 31.2974C37.3916 31.2113 37.4472 31.1362 37.5221 31.0828C37.597 31.0293 37.6873 31.0004 37.7801 31H40.2181H40.219ZM39.8971 31.8571H38.1029L37.6033 33.3717L37.2665 33.532C37.1009 33.611 36.941 33.7009 36.788 33.8011L36.4767 34.0069L34.8794 33.6709L33.9823 35.1863L35.0773 36.3674L35.0509 36.7309C35.0383 36.9101 35.0383 37.0899 35.0509 37.2691L35.0773 37.6326L33.9806 38.8137L34.8786 40.3291L36.4758 39.994L36.7871 40.1989C36.9401 40.2991 37.1 40.389 37.2656 40.468L37.6024 40.6283L38.1029 42.1429H39.8989L40.4002 40.6274L40.7362 40.468C40.9016 40.3892 41.0612 40.2993 41.2138 40.1989L41.5242 39.994L43.1223 40.3291L44.0194 38.8137L42.9235 37.6326L42.9499 37.2691C42.9626 37.0896 42.9626 36.9095 42.9499 36.73L42.9235 36.3666L44.0203 35.1863L43.1223 33.6709L41.5242 34.0051L41.2138 33.8011C41.0612 33.7007 40.9016 33.6108 40.7362 33.532L40.4002 33.3726L39.898 31.8571H39.8971ZM39 34.4286C39.6998 34.4286 40.3709 34.6995 40.8657 35.1817C41.3606 35.664 41.6386 36.318 41.6386 37C41.6386 37.682 41.3606 38.336 40.8657 38.8183C40.3709 39.3005 39.6998 39.5714 39 39.5714C38.3002 39.5714 37.6291 39.3005 37.1343 38.8183C36.6394 38.336 36.3614 37.682 36.3614 37C36.3614 36.318 36.6394 35.664 37.1343 35.1817C37.6291 34.6995 38.3002 34.4286 39 34.4286ZM39 35.2857C38.5335 35.2857 38.0861 35.4663 37.7562 35.7878C37.4263 36.1093 37.241 36.5453 37.241 37C37.241 37.4547 37.4263 37.8907 37.7562 38.2122C38.0861 38.5337 38.5335 38.7143 39 38.7143C39.4665 38.7143 39.9139 38.5337 40.2438 38.2122C40.5737 37.8907 40.759 37.4547 40.759 37C40.759 36.5453 40.5737 36.1093 40.2438 35.7878C39.9139 35.4663 39.4665 35.2857 39 35.2857Z" fill="white"/>
</svg>
