<svg width="234" height="153" viewBox="0 0 234 153" fill="none" xmlns="http://www.w3.org/2000/svg">
<rect width="234" height="153" rx="20" fill="#F5F5F5"/>
<g clip-path="url(#clip0_175_41)">
<path d="M100.993 73.6378C100.421 73.1124 99.5651 72.8458 98.8202 72.6726C97.5826 72.3865 96.3469 72.0942 95.1131 71.7957C94.1899 71.5733 94.1365 70.5489 94.3097 69.7982C94.6398 68.3674 96.6245 68.4615 97.7337 68.5371C98.7322 68.6056 99.7248 68.7367 100.711 68.9306C100.74 68.9363 100.754 68.9249 100.754 68.8964L100.753 66.412C100.753 66.3998 100.749 66.388 100.741 66.3785C100.734 66.3689 100.723 66.3621 100.711 66.3592C98.9853 65.9614 97.2615 65.8507 95.5402 66.027C95.035 66.0784 94.5362 66.1927 94.0438 66.3699C92.1739 67.0422 91.5216 68.4487 91.4047 70.3315C91.3614 71.023 91.4341 71.6655 91.6228 72.2591C91.9843 73.3969 92.916 73.9936 94.0424 74.2702C95.1378 74.5392 96.2345 74.803 97.3324 75.0615C98.3119 75.2918 98.8793 75.398 98.9193 76.4816C98.9749 77.9922 98.4117 78.5204 96.9303 78.581C95.0782 78.6566 93.2582 78.4475 91.4703 77.9537C91.4455 77.947 91.4332 77.9563 91.4332 77.9815V80.5814C91.4332 80.6075 91.4455 80.6249 91.4703 80.6334C92.8426 81.0954 94.4223 81.2465 95.8617 81.2736C97.1057 81.2964 98.2178 81.2365 99.3441 80.8566C101.608 80.0938 102.063 77.9423 101.871 75.805C101.799 75.0173 101.583 74.1782 100.993 73.6378Z" stroke="black" stroke-width="2"/>
<path d="M108.443 72.855C108.44 72.855 108.437 72.8544 108.434 72.8531C108.431 72.8519 108.428 72.8501 108.426 72.8479C108.424 72.8456 108.422 72.843 108.421 72.84C108.42 72.8371 108.419 72.8339 108.419 72.8307L108.418 68.7715C108.418 68.7651 108.421 68.7589 108.426 68.7544C108.43 68.7499 108.436 68.7473 108.443 68.7473H115.442C115.448 68.7473 115.454 68.7448 115.459 68.7402C115.464 68.7357 115.466 68.7295 115.466 68.7231V66.2137C115.466 66.2073 115.464 66.2011 115.459 66.1966C115.454 66.192 115.448 66.1895 115.442 66.1895L105.554 66.1902C105.548 66.1902 105.541 66.1927 105.537 66.1973C105.532 66.2018 105.53 66.208 105.53 66.2144V81.0468C105.53 81.0532 105.532 81.0594 105.537 81.0639C105.541 81.0685 105.548 81.071 105.554 81.071H108.394C108.401 81.071 108.407 81.0685 108.411 81.0639C108.416 81.0594 108.418 81.0532 108.418 81.0468V75.3209C108.418 75.3144 108.421 75.3083 108.426 75.3037C108.43 75.2992 108.436 75.2966 108.443 75.2966H114.551C114.557 75.2966 114.563 75.2941 114.568 75.2895C114.572 75.285 114.575 75.2788 114.575 75.2724V72.8785C114.575 72.8721 114.572 72.8659 114.568 72.8614C114.563 72.8568 114.557 72.8543 114.551 72.8543L108.443 72.855Z" stroke="black" stroke-width="2"/>
<path d="M122.427 68.7476C122.434 68.7476 122.44 68.7503 122.445 68.7551C122.45 68.7599 122.452 68.7664 122.452 68.7732V81.0456C122.452 81.049 122.453 81.0524 122.454 81.0555C122.456 81.0586 122.458 81.0614 122.46 81.0638C122.462 81.0662 122.465 81.0681 122.468 81.0694C122.471 81.0706 122.475 81.0713 122.478 81.0713H125.314C125.321 81.0713 125.327 81.0686 125.332 81.0638C125.337 81.059 125.34 81.0525 125.34 81.0456V68.7732C125.34 68.7699 125.34 68.7665 125.342 68.7634C125.343 68.7603 125.345 68.7575 125.347 68.7551C125.35 68.7527 125.352 68.7508 125.355 68.7495C125.359 68.7482 125.362 68.7476 125.365 68.7476H129.876C129.883 68.7476 129.89 68.7449 129.895 68.7401C129.899 68.7352 129.902 68.7287 129.902 68.7219V66.2161C129.902 66.2093 129.899 66.2028 129.895 66.1979C129.89 66.1931 129.883 66.1904 129.876 66.1904H117.933C117.927 66.1904 117.92 66.1931 117.915 66.1979C117.91 66.2028 117.908 66.2093 117.908 66.2161V68.7219C117.908 68.7287 117.91 68.7352 117.915 68.7401C117.92 68.7449 117.927 68.7476 117.933 68.7476H122.427Z" stroke="black" stroke-width="2"/>
<path d="M116.09 90.5242V85.6787C116.09 85.6549 116.078 85.6431 116.054 85.6431H114.628C114.605 85.6431 114.593 85.6549 114.593 85.6787V100.97C114.593 100.98 114.596 100.99 114.603 100.998C114.609 101.007 114.618 101.012 114.628 101.015C115.967 101.377 117.328 101.568 118.71 101.59C120.953 101.625 123.37 101.267 124.244 98.8515C124.666 97.6866 124.768 96.3785 124.737 95.1502C124.709 93.9768 124.594 92.8939 124.198 91.8274C123.524 90.0152 121.879 89.4463 120.071 89.4691C118.639 89.4867 117.323 89.8448 116.124 90.5435C116.101 90.5568 116.09 90.5504 116.09 90.5242Z" stroke="black" stroke-width="2"/>
<path d="M100.539 100.017C100.539 100.007 100.535 99.9983 100.528 99.9917C100.522 99.985 100.513 99.9812 100.503 99.9812L93 99.9819C92.9906 99.9819 92.9815 99.9782 92.9748 99.9715C92.9681 99.9648 92.9644 99.9557 92.9644 99.9463V86.5796C92.9644 86.5701 92.9606 86.5611 92.954 86.5544C92.9473 86.5477 92.9382 86.5439 92.9287 86.5439L91.4695 86.5461C91.46 86.5461 91.4509 86.5498 91.4443 86.5565C91.4376 86.5632 91.4338 86.5723 91.4338 86.5817L91.4331 101.39C91.4331 101.399 91.4369 101.408 91.4435 101.415C91.4502 101.422 91.4593 101.426 91.4688 101.426L100.504 101.423C100.513 101.423 100.522 101.419 100.529 101.412C100.536 101.406 100.54 101.396 100.54 101.387L100.539 100.017Z" stroke="black" stroke-width="2"/>
<path d="M109.719 94.8908C108.225 94.636 106.724 94.5624 105.217 94.6698C104.919 94.6912 104.649 94.7287 104.406 94.7824C102.856 95.126 102.06 95.8254 101.888 97.4479C101.77 98.56 101.898 100.07 102.826 100.856C103.375 101.322 104.119 101.522 104.826 101.571C106.549 101.691 108.381 101.303 109.787 100.27C109.791 100.267 109.796 100.265 109.802 100.265C109.807 100.264 109.812 100.265 109.817 100.267C109.822 100.269 109.826 100.273 109.829 100.277C109.832 100.282 109.834 100.287 109.834 100.292L109.903 101.384C109.904 101.41 109.918 101.423 109.945 101.423L111.189 101.424C111.231 101.424 111.252 101.403 111.252 101.361C111.252 98.7095 111.251 96.0452 111.247 93.368C111.243 91.5017 110.474 89.9754 108.513 89.6018C107.865 89.4785 107.397 89.4657 106.662 89.4692C105.474 89.4754 104.287 89.6121 103.1 89.8792C103.087 89.8822 103.074 89.8898 103.066 89.9007C103.057 89.9116 103.052 89.9251 103.052 89.939L103.053 91.151C103.053 91.1828 103.069 91.1952 103.1 91.188C104.618 90.823 106.103 90.7085 107.553 90.8444C107.893 90.8763 108.228 90.9746 108.558 91.1395C109.965 91.8425 109.778 93.5641 109.76 94.8566C109.76 94.8841 109.746 94.8955 109.719 94.8908Z" stroke="black" stroke-width="2"/>
<path d="M134.362 95.3149C134.016 95.1514 133.706 95.0461 133.431 94.9991C132.927 94.913 131.724 94.7241 129.822 94.4323C129.264 94.3475 128.771 94.1272 128.606 93.5348C128.48 93.0842 128.5 92.5762 128.665 92.0106C128.897 91.2222 129.612 90.9698 130.334 90.8729C130.841 90.8044 131.351 90.7761 131.863 90.788C132.829 90.8099 133.791 90.8871 134.749 91.0197C134.774 91.023 134.786 91.0126 134.786 90.9883V89.7436C134.786 89.7313 134.781 89.7194 134.773 89.71C134.765 89.7006 134.754 89.6943 134.741 89.6923C133.809 89.5469 132.873 89.4723 131.935 89.4685C129.28 89.4578 126.966 89.8577 127.049 93.1584C127.082 94.4644 127.703 95.4696 129.049 95.6863C129.577 95.7709 130.715 95.9494 132.463 96.2217C132.827 96.2787 133.147 96.3742 133.45 96.5275C134.273 96.9431 134.193 98.1907 133.992 98.9264C133.693 100.021 132.548 100.215 131.56 100.235C130.051 100.267 128.432 100.139 127.012 99.6664C126.99 99.6592 126.979 99.6668 126.979 99.6892V101.007C126.979 101.024 126.985 101.042 126.996 101.056C127.007 101.07 127.023 101.08 127.04 101.084C128.145 101.353 129.265 101.514 130.401 101.567C131.775 101.631 133.687 101.695 134.753 100.611C135.573 99.7747 135.717 98.2121 135.551 97.1085C135.424 96.2637 135.124 95.6756 134.362 95.3149Z" stroke="black" stroke-width="2"/>
<path d="M122.816 98.39C123.227 97.3385 123.29 96.0895 123.242 94.9617C123.201 94.0036 123.103 93.0255 122.715 92.2428C122.307 91.4187 121.552 91.0116 120.672 90.8783C119.043 90.6321 117.526 90.9249 116.12 91.7566C116.111 91.762 116.103 91.7698 116.098 91.779C116.093 91.7883 116.09 91.7987 116.09 91.8093V99.8286C116.09 99.8514 116.101 99.8662 116.122 99.8728C117.321 100.252 118.698 100.305 119.957 100.194C121.208 100.082 122.326 99.6411 122.816 98.39Z" stroke="black" stroke-width="2"/>
<path d="M104.341 100.012C104.63 100.133 104.869 100.203 105.058 100.221C106.711 100.383 108.257 100.047 109.695 99.2148C109.716 99.2029 109.733 99.1858 109.745 99.1652C109.757 99.1445 109.763 99.1211 109.763 99.0972V96.143C109.763 96.1226 109.753 96.1107 109.733 96.1073C108.463 95.8773 107.184 95.7889 105.895 95.8422C105.453 95.8607 105.002 95.9329 104.542 96.0589C103.628 96.3098 103.3 96.9742 103.265 97.8924C103.232 98.7422 103.498 99.6575 104.341 100.012Z" stroke="black" stroke-width="2"/>
<path d="M80 40H153V113H80V40ZM100.993 73.6377C100.421 73.1123 99.5653 72.8457 98.8203 72.6725C97.5827 72.3864 96.3471 72.0941 95.1133 71.7956C94.1901 71.5732 94.1366 70.5488 94.3099 69.7981C94.6399 68.3673 96.6246 68.4614 97.7339 68.537C98.7324 68.6054 99.725 68.7366 100.712 68.9305C100.74 68.9362 100.754 68.9248 100.754 68.8963L100.753 66.4119C100.753 66.3997 100.749 66.3879 100.741 66.3783C100.734 66.3688 100.723 66.362 100.712 66.3591C98.9855 65.9613 97.2617 65.8506 95.5403 66.0269C95.0351 66.0783 94.5363 66.1926 94.0439 66.3698C92.174 67.0421 91.5217 68.4486 91.4048 70.3314C91.3616 71.0229 91.4343 71.6654 91.623 72.259C91.9844 73.3968 92.9162 73.9935 94.0425 74.2701C95.138 74.5391 96.2347 74.8028 97.3325 75.0614C98.312 75.2917 98.8795 75.3979 98.9194 76.4815C98.975 77.9921 98.4118 78.5203 96.9304 78.5809C95.0784 78.6565 93.2583 78.4474 91.4704 77.9536C91.4457 77.9469 91.4333 77.9562 91.4333 77.9814V80.5813C91.4333 80.6074 91.4457 80.6248 91.4704 80.6333C92.8427 81.0953 94.4225 81.2464 95.8618 81.2735C97.1058 81.2963 98.2179 81.2364 99.3443 80.8565C101.608 80.0937 102.063 77.9422 101.871 75.8049C101.799 75.0172 101.583 74.1781 100.993 73.6377ZM108.444 72.855C108.44 72.855 108.437 72.8544 108.434 72.8531C108.431 72.8519 108.429 72.8501 108.426 72.8479C108.424 72.8456 108.422 72.843 108.421 72.84C108.42 72.8371 108.419 72.8339 108.419 72.8308L108.419 68.7716C108.419 68.7651 108.421 68.759 108.426 68.7544C108.43 68.7499 108.436 68.7473 108.443 68.7473H115.442C115.448 68.7473 115.455 68.7448 115.459 68.7402C115.464 68.7357 115.466 68.7295 115.466 68.7231V66.2137C115.466 66.2073 115.464 66.2011 115.459 66.1966C115.455 66.192 115.448 66.1895 115.442 66.1895L105.554 66.1902C105.548 66.1902 105.542 66.1927 105.537 66.1973C105.533 66.2018 105.53 66.208 105.53 66.2144V81.0468C105.53 81.0532 105.533 81.0594 105.537 81.064C105.542 81.0685 105.548 81.0711 105.554 81.0711H108.394C108.401 81.0711 108.407 81.0685 108.412 81.064C108.416 81.0594 108.419 81.0532 108.419 81.0468V75.3209C108.419 75.3144 108.421 75.3083 108.426 75.3037C108.43 75.2992 108.436 75.2966 108.443 75.2966H114.551C114.557 75.2966 114.564 75.2941 114.568 75.2895C114.573 75.285 114.575 75.2788 114.575 75.2724V72.8785C114.575 72.8721 114.573 72.8659 114.568 72.8614C114.564 72.8568 114.557 72.8543 114.551 72.8543L108.444 72.855ZM122.427 68.7473C122.434 68.7473 122.44 68.75 122.445 68.7548C122.45 68.7596 122.453 68.7662 122.453 68.773V81.0454C122.453 81.0488 122.453 81.0521 122.455 81.0552C122.456 81.0583 122.458 81.0612 122.46 81.0635C122.463 81.0659 122.465 81.0678 122.468 81.0691C122.472 81.0704 122.475 81.0711 122.478 81.0711H125.314C125.321 81.0711 125.328 81.0684 125.332 81.0635C125.337 81.0587 125.34 81.0522 125.34 81.0454V68.773C125.34 68.7696 125.341 68.7663 125.342 68.7632C125.343 68.76 125.345 68.7572 125.347 68.7548C125.35 68.7524 125.353 68.7506 125.356 68.7493C125.359 68.748 125.362 68.7473 125.366 68.7473H129.877C129.883 68.7473 129.89 68.7446 129.895 68.7398C129.9 68.735 129.902 68.7285 129.902 68.7217V66.2158C129.902 66.209 129.9 66.2025 129.895 66.1977C129.89 66.1929 129.883 66.1902 129.877 66.1902H117.934C117.927 66.1902 117.92 66.1929 117.915 66.1977C117.911 66.2025 117.908 66.209 117.908 66.2158V68.7217C117.908 68.7285 117.911 68.735 117.915 68.7398C117.92 68.7446 117.927 68.7473 117.934 68.7473H122.427ZM116.09 90.524V85.6785C116.09 85.6547 116.078 85.6428 116.054 85.6428H114.629C114.605 85.6428 114.593 85.6547 114.593 85.6785V100.97C114.593 100.98 114.596 100.99 114.603 100.998C114.609 101.006 114.618 101.012 114.628 101.015C115.968 101.377 117.329 101.568 118.711 101.589C120.953 101.624 123.37 101.267 124.244 98.8513C124.666 97.6864 124.768 96.3782 124.737 95.1499C124.709 93.9765 124.594 92.8936 124.198 91.8271C123.524 90.015 121.879 89.4461 120.072 89.4689C118.639 89.4865 117.323 89.8446 116.124 90.5432C116.101 90.5565 116.09 90.5501 116.09 90.524ZM100.539 100.017C100.539 100.007 100.535 99.9983 100.529 99.9916C100.522 99.9849 100.513 99.9812 100.503 99.9812L93.0003 99.9819C92.9908 99.9819 92.9818 99.9781 92.9751 99.9715C92.9684 99.9648 92.9646 99.9557 92.9646 99.9463V86.5796C92.9646 86.5701 92.9609 86.561 92.9542 86.5544C92.9475 86.5477 92.9384 86.5439 92.929 86.5439L91.4697 86.5461C91.4602 86.5461 91.4512 86.5498 91.4445 86.5565C91.4378 86.5632 91.4341 86.5722 91.4341 86.5817L91.4333 101.39C91.4333 101.399 91.4371 101.408 91.4438 101.415C91.4505 101.422 91.4595 101.426 91.469 101.426L100.504 101.423C100.514 101.423 100.523 101.419 100.529 101.412C100.536 101.406 100.54 101.396 100.54 101.387L100.539 100.017ZM109.719 94.8904C108.225 94.6357 106.724 94.562 105.217 94.6694C104.919 94.6908 104.649 94.7284 104.407 94.7821C102.856 95.1257 102.06 95.825 101.888 97.4476C101.77 98.5597 101.899 100.07 102.826 100.856C103.375 101.321 104.119 101.522 104.826 101.571C106.549 101.691 108.381 101.303 109.787 100.27C109.792 100.267 109.797 100.265 109.802 100.264C109.807 100.264 109.812 100.265 109.817 100.267C109.822 100.269 109.826 100.273 109.829 100.277C109.832 100.281 109.834 100.287 109.834 100.292L109.903 101.383C109.904 101.41 109.918 101.423 109.945 101.423L111.189 101.423C111.231 101.423 111.252 101.402 111.252 101.361C111.253 98.7092 111.251 96.0448 111.247 93.3677C111.243 91.5014 110.475 89.9751 108.513 89.6015C107.865 89.4782 107.397 89.4653 106.662 89.4689C105.474 89.4751 104.287 89.6117 103.101 89.8788C103.087 89.8819 103.074 89.8895 103.066 89.9004C103.057 89.9113 103.052 89.9248 103.052 89.9387L103.053 91.1506C103.053 91.1825 103.069 91.1948 103.1 91.1877C104.618 90.8227 106.103 90.7081 107.553 90.8441C107.893 90.8759 108.228 90.9743 108.558 91.1392C109.965 91.8421 109.778 93.5637 109.76 94.8562C109.76 94.8838 109.746 94.8952 109.719 94.8904ZM134.362 95.3146C134.016 95.1511 133.706 95.0458 133.431 94.9988C132.927 94.9128 131.724 94.7239 129.822 94.432C129.264 94.3472 128.771 94.1269 128.606 93.5345C128.48 93.084 128.5 92.5759 128.665 92.0104C128.897 91.2219 129.612 90.9695 130.334 90.8726C130.841 90.8041 131.351 90.7759 131.863 90.7878C132.829 90.8096 133.791 90.8868 134.749 91.0194C134.774 91.0228 134.786 91.0123 134.786 90.9881V89.7434C134.786 89.7311 134.781 89.7191 134.773 89.7097C134.765 89.7003 134.754 89.6941 134.741 89.692C133.809 89.5466 132.873 89.472 131.935 89.4682C129.28 89.4575 126.966 89.8574 127.049 93.1581C127.082 94.4641 127.703 95.4693 129.049 95.686C129.577 95.7706 130.715 95.9491 132.463 96.2214C132.827 96.2784 133.147 96.374 133.45 96.5272C134.273 96.9429 134.193 98.1904 133.992 98.9261C133.693 100.02 132.548 100.214 131.56 100.235C130.051 100.267 128.432 100.139 127.012 99.6661C126.99 99.659 126.979 99.6666 126.979 99.6889V101.006C126.979 101.024 126.985 101.042 126.996 101.056C127.007 101.069 127.023 101.079 127.04 101.083C128.145 101.353 129.265 101.514 130.401 101.567C131.775 101.631 133.687 101.695 134.753 100.611C135.573 99.7745 135.717 98.2118 135.551 97.1082C135.424 96.2635 135.124 95.6753 134.362 95.3146Z" fill="black"/>
<path d="M98.8202 72.6726C99.5651 72.8458 100.421 73.1124 100.993 73.6378C101.583 74.1782 101.799 75.0173 101.871 75.805C102.063 77.9423 101.608 80.0938 99.3441 80.8566C98.2178 81.2365 97.1057 81.2964 95.8617 81.2736C94.4223 81.2465 92.8426 81.0954 91.4703 80.6334C91.4455 80.6249 91.4332 80.6075 91.4332 80.5814V77.9815C91.4332 77.9563 91.4455 77.947 91.4703 77.9537C93.2582 78.4475 95.0782 78.6566 96.9303 78.581C98.4117 78.5204 98.9749 77.9922 98.9193 76.4816C98.8793 75.398 98.3119 75.2918 97.3324 75.0615C96.2345 74.803 95.1378 74.5392 94.0424 74.2702C92.916 73.9936 91.9843 73.3969 91.6228 72.2591C91.4341 71.6655 91.3614 71.023 91.4047 70.3315C91.5216 68.4487 92.1739 67.0422 94.0438 66.3699C94.5362 66.1927 95.035 66.0784 95.5402 66.027C97.2615 65.8507 98.9853 65.9614 100.711 66.3592C100.723 66.3621 100.734 66.3689 100.741 66.3785C100.749 66.388 100.753 66.3998 100.753 66.412L100.754 68.8964C100.754 68.9249 100.74 68.9363 100.711 68.9306C99.7248 68.7367 98.7322 68.6056 97.7337 68.5371C96.6245 68.4615 94.6398 68.3674 94.3097 69.7982C94.1365 70.5489 94.1899 71.5733 95.1131 71.7957C96.3469 72.0942 97.5826 72.3865 98.8202 72.6726Z" fill="white"/>
<path d="M108.444 72.855L114.551 72.8543C114.558 72.8543 114.564 72.8568 114.568 72.8614C114.573 72.8659 114.575 72.8721 114.575 72.8785V75.2724C114.575 75.2788 114.573 75.285 114.568 75.2895C114.564 75.2941 114.558 75.2966 114.551 75.2966H108.443C108.437 75.2966 108.431 75.2992 108.426 75.3037C108.421 75.3083 108.419 75.3144 108.419 75.3209V81.0468C108.419 81.0532 108.416 81.0594 108.412 81.0639C108.407 81.0685 108.401 81.071 108.395 81.071H105.555C105.548 81.071 105.542 81.0685 105.537 81.0639C105.533 81.0594 105.53 81.0532 105.53 81.0468V66.2144C105.53 66.208 105.533 66.2018 105.537 66.1973C105.542 66.1927 105.548 66.1902 105.555 66.1902L115.442 66.1895C115.449 66.1895 115.455 66.192 115.459 66.1966C115.464 66.2011 115.467 66.2073 115.467 66.2137V68.7231C115.467 68.7295 115.464 68.7357 115.459 68.7402C115.455 68.7448 115.449 68.7473 115.442 68.7473H108.443C108.437 68.7473 108.431 68.7499 108.426 68.7544C108.421 68.7589 108.419 68.7651 108.419 68.7715L108.42 72.8307C108.42 72.8339 108.42 72.8371 108.421 72.84C108.423 72.843 108.424 72.8456 108.427 72.8479C108.429 72.8501 108.432 72.8519 108.435 72.8531C108.438 72.8544 108.441 72.855 108.444 72.855Z" fill="white"/>
<path d="M122.427 68.7471H117.934C117.927 68.7471 117.921 68.7444 117.916 68.7396C117.911 68.7348 117.908 68.7282 117.908 68.7214V66.2156C117.908 66.2088 117.911 66.2023 117.916 66.1975C117.921 66.1926 117.927 66.1899 117.934 66.1899H129.877C129.884 66.1899 129.89 66.1926 129.895 66.1975C129.9 66.2023 129.903 66.2088 129.903 66.2156V68.7214C129.903 68.7282 129.9 68.7348 129.895 68.7396C129.89 68.7444 129.884 68.7471 129.877 68.7471H125.366C125.362 68.7471 125.359 68.7477 125.356 68.749C125.353 68.7503 125.35 68.7522 125.348 68.7546C125.345 68.757 125.343 68.7598 125.342 68.7629C125.341 68.766 125.34 68.7694 125.34 68.7727V81.0452C125.34 81.052 125.337 81.0585 125.333 81.0633C125.328 81.0681 125.321 81.0708 125.314 81.0708H122.479C122.475 81.0708 122.472 81.0702 122.469 81.0689C122.466 81.0676 122.463 81.0657 122.46 81.0633C122.458 81.0609 122.456 81.0581 122.455 81.055C122.454 81.0519 122.453 81.0485 122.453 81.0452V68.7727C122.453 68.7659 122.45 68.7594 122.445 68.7546C122.441 68.7498 122.434 68.7471 122.427 68.7471Z" fill="white"/>
<path d="M116.124 90.543C117.323 89.8444 118.639 89.4862 120.071 89.4687C121.879 89.4458 123.524 90.0147 124.198 91.8269C124.594 92.8934 124.709 93.9763 124.737 95.1497C124.768 96.378 124.666 97.6862 124.244 98.851C123.37 101.267 120.953 101.624 118.71 101.589C117.328 101.568 115.967 101.376 114.628 101.015C114.618 101.012 114.609 101.006 114.603 100.998C114.596 100.99 114.593 100.98 114.593 100.97V85.6782C114.593 85.6545 114.605 85.6426 114.628 85.6426H116.054C116.078 85.6426 116.09 85.6545 116.09 85.6782V90.5237C116.09 90.5499 116.101 90.5563 116.124 90.543ZM122.816 98.3898C123.227 97.3383 123.29 96.0893 123.242 94.9615C123.201 94.0034 123.103 93.0253 122.715 92.2425C122.307 91.4184 121.552 91.0114 120.672 90.878C119.043 90.6319 117.526 90.9246 116.12 91.7563C116.111 91.7618 116.103 91.7695 116.098 91.7788C116.093 91.788 116.09 91.7985 116.09 91.8091V99.8284C116.09 99.8512 116.101 99.8659 116.122 99.8726C117.321 100.252 118.698 100.305 119.957 100.193C121.208 100.082 122.326 99.6409 122.816 98.3898Z" fill="white"/>
<path d="M100.539 100.017L100.54 101.387C100.54 101.396 100.536 101.406 100.529 101.412C100.522 101.419 100.513 101.423 100.504 101.423L91.4688 101.426C91.4593 101.426 91.4502 101.422 91.4435 101.415C91.4369 101.408 91.4331 101.399 91.4331 101.39L91.4338 86.5817C91.4338 86.5723 91.4376 86.5632 91.4443 86.5565C91.4509 86.5498 91.46 86.5461 91.4695 86.5461L92.9287 86.5439C92.9382 86.5439 92.9473 86.5477 92.954 86.5544C92.9606 86.5611 92.9644 86.5701 92.9644 86.5796V99.9463C92.9644 99.9557 92.9681 99.9648 92.9748 99.9715C92.9815 99.9782 92.9906 99.9819 93 99.9819L100.503 99.9812C100.513 99.9812 100.522 99.985 100.528 99.9917C100.535 99.9983 100.539 100.007 100.539 100.017Z" fill="white"/>
<path d="M109.76 94.8561C109.778 93.5636 109.965 91.842 108.558 91.1391C108.228 90.9741 107.893 90.8758 107.553 90.8439C106.103 90.708 104.618 90.8225 103.1 91.1875C103.069 91.1947 103.053 91.1823 103.053 91.1505L103.052 89.9386C103.052 89.9246 103.057 89.9111 103.066 89.9002C103.074 89.8893 103.087 89.8817 103.1 89.8787C104.287 89.6116 105.474 89.4749 106.662 89.4688C107.397 89.4652 107.865 89.478 108.513 89.6014C110.474 89.9749 111.243 91.5012 111.247 93.3676C111.251 96.0447 111.252 98.709 111.252 101.36C111.252 101.402 111.231 101.423 111.189 101.423L109.945 101.423C109.918 101.423 109.904 101.409 109.903 101.383L109.834 100.292C109.834 100.287 109.832 100.281 109.829 100.277C109.826 100.272 109.822 100.269 109.817 100.267C109.812 100.264 109.807 100.263 109.802 100.264C109.796 100.265 109.791 100.267 109.787 100.27C108.381 101.303 106.549 101.691 104.826 101.571C104.119 101.522 103.375 101.321 102.826 100.856C101.898 100.069 101.77 98.5595 101.888 97.4474C102.06 95.8249 102.856 95.1255 104.406 94.7819C104.649 94.7282 104.919 94.6907 105.217 94.6693C106.724 94.5619 108.225 94.6356 109.719 94.8903C109.746 94.895 109.76 94.8836 109.76 94.8561ZM104.341 100.012C104.63 100.133 104.869 100.203 105.058 100.221C106.711 100.382 108.257 100.047 109.695 99.2147C109.716 99.2028 109.733 99.1857 109.745 99.165C109.757 99.1444 109.763 99.1209 109.763 99.0971V96.1428C109.763 96.1224 109.753 96.1105 109.733 96.1072C108.464 95.8772 107.185 95.7888 105.896 95.842C105.453 95.8605 105.002 95.9328 104.543 96.0587C103.629 96.3097 103.3 96.9741 103.265 97.8923C103.232 98.742 103.498 99.6574 104.341 100.012Z" fill="white"/>
<path d="M134.362 95.3144C135.124 95.6751 135.424 96.2633 135.551 97.108C135.717 98.2116 135.573 99.7742 134.753 100.61C133.687 101.695 131.775 101.631 130.401 101.566C129.265 101.514 128.145 101.353 127.04 101.083C127.023 101.079 127.007 101.069 126.996 101.055C126.985 101.041 126.979 101.024 126.979 101.006V99.6887C126.979 99.6664 126.99 99.6588 127.012 99.6659C128.432 100.139 130.051 100.267 131.56 100.235C132.548 100.214 133.693 100.02 133.992 98.9259C134.193 98.1902 134.273 96.9426 133.45 96.527C133.147 96.3737 132.827 96.2782 132.463 96.2212C130.715 95.9489 129.577 95.7704 129.049 95.6858C127.703 95.4691 127.082 94.4639 127.049 93.1579C126.966 89.8572 129.28 89.4573 131.935 89.468C132.873 89.4718 133.809 89.5464 134.741 89.6918C134.754 89.6938 134.765 89.7001 134.773 89.7095C134.781 89.7189 134.786 89.7308 134.786 89.7432V90.9879C134.786 91.0121 134.774 91.0226 134.749 91.0192C133.791 90.8866 132.829 90.8094 131.863 90.7875C131.351 90.7757 130.841 90.8039 130.334 90.8724C129.612 90.9693 128.897 91.2217 128.665 92.0101C128.5 92.5757 128.48 93.0838 128.606 93.5343C128.771 94.1267 129.264 94.347 129.822 94.4318C131.724 94.7236 132.927 94.9126 133.431 94.9986C133.706 95.0456 134.016 95.1509 134.362 95.3144Z" fill="white"/>
<path d="M122.816 98.39C122.326 99.6411 121.208 100.082 119.957 100.194C118.698 100.305 117.321 100.252 116.122 99.8728C116.101 99.8662 116.09 99.8514 116.09 99.8286V91.8093C116.09 91.7987 116.093 91.7883 116.098 91.779C116.103 91.7698 116.111 91.762 116.12 91.7566C117.526 90.9249 119.043 90.6321 120.672 90.8783C121.552 91.0116 122.307 91.4187 122.715 92.2428C123.103 93.0255 123.201 94.0036 123.242 94.9617C123.29 96.0895 123.227 97.3385 122.816 98.39Z" fill="black"/>
<path d="M104.342 100.012C103.498 99.6575 103.233 98.7422 103.265 97.8924C103.3 96.9742 103.629 96.3098 104.543 96.0589C105.002 95.9329 105.453 95.8607 105.896 95.8422C107.185 95.7889 108.464 95.8773 109.733 96.1073C109.753 96.1107 109.763 96.1226 109.763 96.143V99.0972C109.763 99.1211 109.757 99.1445 109.745 99.1652C109.733 99.1858 109.716 99.2029 109.696 99.2148C108.257 100.047 106.712 100.383 105.058 100.221C104.87 100.203 104.631 100.133 104.342 100.012Z" fill="black"/>
</g>
<defs>
<clipPath id="clip0_175_41">
<rect width="73" height="73" fill="white" transform="translate(80 40)"/>
</clipPath>
</defs>
</svg>
