<svg width="293" height="153" viewBox="0 0 293 153" fill="none" xmlns="http://www.w3.org/2000/svg">
<rect width="293" height="153" rx="20" fill="#F5F5F5"/>
<path d="M63.0771 57.9382C62.9725 58.003 62.9265 58.0268 62.8855 58.0575C60.2538 60.0285 57.6237 62.0015 54.9883 63.9675C54.8389 64.0791 54.802 64.1992 54.8044 64.3685C54.8148 65.1191 54.8216 65.8697 54.8217 66.6202C54.8229 72.795 54.8197 78.9699 54.8238 85.1447C54.8253 87.3733 56.4194 89.1185 58.6174 89.3183C60.7386 89.5112 62.6992 87.9749 63.0133 85.8667C63.052 85.6066 63.0693 85.3409 63.0693 85.0779C63.0716 78.533 63.0692 71.9882 63.0695 65.4433C63.0696 63.075 63.0743 60.7066 63.077 58.3384C63.0771 58.2246 63.0771 58.1109 63.0771 57.9382ZM59.7366 94.1297C59.8119 94.1818 59.8838 94.2394 59.9626 94.2853C62.442 95.7315 65.0886 96.1543 67.8753 95.4773C72.6642 94.314 75.9472 90.0904 75.9476 85.1561C75.948 78.971 75.9476 72.7859 75.9476 66.6008C75.9476 64.7294 75.9478 62.858 75.9469 60.9866C75.9468 60.8869 75.9357 60.7872 75.9269 60.6408C75.8053 60.7176 75.7257 60.7628 75.6515 60.8157C73.1457 62.6002 70.6428 64.3886 68.1313 66.1649C67.9057 66.3244 67.8293 66.4887 67.8297 66.7604C67.8376 72.861 67.8376 78.9615 67.8323 85.062C67.8319 85.5259 67.8211 85.996 67.7485 86.4527C67.274 89.4381 65.7008 91.6597 63.0447 93.1034C62.0212 93.6597 60.914 93.9602 59.7366 94.1297ZM88.85 62.924C88.6932 63.0276 88.5969 63.0872 88.5047 63.1527C86.0055 64.9277 83.5089 66.7061 81.0044 68.4736C80.7903 68.6247 80.7104 68.7779 80.7108 69.0406C80.719 74.3582 80.7185 79.6759 80.7145 84.9935C80.7141 85.4897 80.694 85.9871 80.6574 86.4819C80.5073 88.5104 79.9514 90.4266 79.0215 92.2335C76.406 97.3162 71.0359 100.726 64.9413 100.541C64.8331 100.538 64.7248 100.541 64.6167 100.541C64.7039 100.633 64.7952 100.681 64.8891 100.722C68.3055 102.229 71.843 102.593 75.4899 101.805C83.2513 100.129 88.8443 93.1897 88.8447 85.2566C88.8448 80.3829 88.8442 75.5092 88.845 70.6355C88.8452 68.5741 88.8483 66.5126 88.8499 64.4511C88.8503 63.9658 88.85 63.4806 88.85 62.924ZM67.7671 48.0002C67.7688 49.2899 67.7716 50.5798 67.7721 51.8695C67.7729 54.3117 67.7723 56.7539 67.7723 59.1962C67.7723 59.3083 67.7723 59.4205 67.7723 59.6038C68.5522 59.0937 69.2467 58.5854 69.9526 58.0941C70.6727 57.5929 71.3902 57.088 72.1089 56.5849C72.8189 56.0879 73.5292 55.5911 74.2392 55.0939C74.949 54.5965 75.6585 54.0986 76.3683 53.6013C77.0869 53.098 77.8058 52.5951 78.5246 52.0922C79.2329 51.5966 79.9413 51.1012 80.7059 50.5664C80.7263 50.9966 80.7143 51.3699 80.7165 51.7423C80.7188 52.1334 80.7169 52.5246 80.7169 52.9158C80.7169 53.2965 80.7169 53.6771 80.7169 54.0577C80.7169 54.4488 80.7169 54.84 80.7169 55.2311C80.7169 55.6117 80.7169 55.9923 80.7169 56.373C80.7169 56.7536 80.7169 57.1342 80.7169 57.5148C80.7169 57.9059 80.7169 58.2971 80.7169 58.6883C80.7169 59.0689 80.7169 59.4496 80.7169 59.8302C80.7169 60.2213 80.7169 60.6125 80.7169 61.0036C80.7169 61.3808 80.7169 61.7578 80.7169 62.2031C80.8929 62.0932 81.0251 62.0194 81.148 61.9325C82.6058 60.9001 84.0607 59.8639 85.5192 58.8325C88.1083 57.0017 90.6992 55.1735 93.2898 53.3445C93.3668 53.2903 93.4469 53.2407 93.5553 53.1693C93.5698 53.2591 93.5859 53.324 93.5895 53.3896C93.5946 53.4844 93.5908 53.5797 93.5908 53.675C93.5908 64.2261 93.5559 74.7774 93.6025 85.3284C93.6361 92.9074 89.3474 100.752 81.6561 104.644C79.4487 105.761 77.1152 106.472 74.6642 106.796C74.1929 106.858 73.7179 106.893 73.245 106.944C73.1526 106.954 73.0618 106.981 72.9705 107C72.2089 107 71.4475 107 70.686 107C70.5847 106.979 70.4842 106.949 70.3819 106.94C69.1067 106.829 67.8421 106.653 66.5984 106.344C60.1035 104.729 54.7035 100.218 51.9583 94.1096C50.9089 91.7745 50.2925 89.3297 50.1124 86.7747C50.0971 86.5575 50.0385 86.3434 50 86.128C50 77.7327 50 69.3374 50 60.942C50.0897 60.887 50.1837 60.8381 50.2682 60.7761C55.9949 56.5822 61.7209 52.3873 67.4459 48.191C67.5184 48.1378 67.5758 48.0642 67.6403 48.0002C67.6826 48.0002 67.7249 48.0002 67.7671 48.0002Z" fill="black"/>
<path d="M104.497 64.9164C106.263 64.9164 107.993 64.9164 109.758 64.9164C109.764 65.0458 109.773 65.1678 109.773 65.2899C109.774 67.3303 109.774 69.3707 109.774 71.4111C109.774 76.1262 109.774 80.8413 109.774 85.5565C109.774 86.4487 109.875 87.3287 110.115 88.1889C110.725 90.382 112.159 91.7609 114.321 92.4037C115.323 92.7015 116.353 92.7824 117.395 92.7517C118.298 92.7253 119.188 92.6125 120.043 92.3165C122.272 91.546 123.605 89.9804 124.111 87.6923C124.277 86.9458 124.336 86.1882 124.336 85.4254C124.337 78.7333 124.336 72.0412 124.336 65.3493C124.336 65.2142 124.336 65.0792 124.336 64.9216C126.107 64.9216 127.845 64.9216 129.604 64.9216C129.611 65.0243 129.623 65.1157 129.623 65.2072C129.624 72.005 129.633 78.8027 129.618 85.6006C129.614 87.3589 129.324 89.0772 128.59 90.6908C127.348 93.4202 125.31 95.3156 122.517 96.401C120.536 97.1706 118.479 97.4552 116.363 97.3813C114.637 97.321 112.961 97.0126 111.359 96.3596C107.931 94.9626 105.804 92.4332 104.888 88.8683C104.613 87.7992 104.497 86.7068 104.497 85.6031C104.496 78.8265 104.497 72.0498 104.497 65.2732C104.497 65.1602 104.497 65.047 104.497 64.9164Z" fill="black"/>
<path d="M211.993 84.4678C212.001 83.3952 211.912 82.2372 211.551 81.1201C210.87 79.013 209.61 77.3877 207.564 76.4406C206.702 76.0418 205.794 75.8177 204.845 75.7591C203.137 75.6537 201.547 76.0254 200.111 76.9691C198.868 77.7858 198.046 78.9479 197.474 80.2994C197.068 81.2625 196.881 82.2775 196.808 83.3171C196.707 84.7293 196.795 86.1268 197.16 87.4973C197.525 88.8612 198.165 90.072 199.221 91.0351C200.921 92.5844 202.946 93.1263 205.18 92.8276C207.964 92.4552 209.976 90.959 211.181 88.4112C211.756 87.1956 211.949 85.8939 211.993 84.4678ZM191.394 84.3678C191.399 82.2375 191.739 80.2177 192.637 78.32C194.385 74.6311 197.292 72.3685 201.252 71.4879C203.985 70.8805 206.707 71.0102 209.336 72.0082C213.418 73.5577 215.953 76.5269 216.994 80.7347C217.691 83.5547 217.616 86.3935 216.6 89.1339C215.069 93.2658 212.107 95.895 207.86 97.0229C205.056 97.7679 202.235 97.7044 199.496 96.6987C195.602 95.2679 193.129 92.4765 191.952 88.5207C191.545 87.1536 191.405 85.7459 191.394 84.3678Z" fill="black"/>
<path d="M226.04 97.0557C224.271 97.0557 222.533 97.0557 220.777 97.0557C220.777 88.5633 220.777 80.09 220.777 71.5952C222.524 71.5952 224.255 71.5952 226.026 71.5952C226.064 72.512 226.021 73.4354 226.051 74.4075C226.133 74.3421 226.182 74.3124 226.218 74.2715C227.622 72.6938 229.398 71.7691 231.445 71.3707C233.796 70.9128 236.103 71.1183 238.311 72.0711C241.138 73.2901 242.853 75.4669 243.657 78.401C243.955 79.4885 244.062 80.5996 244.061 81.7262C244.055 86.7271 244.058 91.7281 244.058 96.7291C244.058 96.8324 244.058 96.9358 244.058 97.0581C242.316 97.0581 240.608 97.0581 238.862 97.0581C238.858 96.9169 238.85 96.7841 238.85 96.6515C238.85 91.9993 238.85 87.3473 238.85 82.6952C238.85 81.5545 238.71 80.4351 238.269 79.3755C237.449 77.4043 235.968 76.2336 233.872 75.8586C232.593 75.6297 231.317 75.681 230.083 76.1108C228.088 76.8059 226.876 78.2295 226.342 80.254C226.112 81.1292 226.043 82.0244 226.042 82.9247C226.039 87.4922 226.04 92.0596 226.04 96.6271C226.04 96.7629 226.04 96.8988 226.04 97.0557Z" fill="black"/>
<path d="M139.914 97.0602C138.143 97.0602 136.413 97.0602 134.66 97.0602C134.66 88.5678 134.66 80.0876 134.66 71.5908C136.406 71.5908 138.136 71.5908 139.91 71.5908C139.91 72.5188 139.91 73.4397 139.91 74.4241C140.004 74.3437 140.045 74.316 140.076 74.2802C141.393 72.7999 143.043 71.8778 144.96 71.4509C147.704 70.8395 150.363 71.1094 152.877 72.4111C155.214 73.6208 156.66 75.5686 157.423 78.0522C157.805 79.2939 157.953 80.5721 157.954 81.8683C157.955 86.8157 157.954 91.763 157.954 96.7105C157.954 96.8149 157.954 96.9194 157.954 97.0159C157.698 97.093 153.058 97.1033 152.727 97.029C152.727 96.9099 152.727 96.7845 152.727 96.6591C152.727 92.0501 152.728 87.4409 152.726 82.8318C152.725 81.7374 152.615 80.6553 152.229 79.6222C151.431 77.4884 149.9 76.2283 147.655 75.8463C146.524 75.6539 145.395 75.6862 144.293 76.0041C142.165 76.6179 140.829 78.028 140.237 80.1505C140.001 81.0004 139.914 81.872 139.914 82.7533C139.915 87.3729 139.914 91.9926 139.914 96.6122C139.914 96.7488 139.914 96.8854 139.914 97.0602Z" fill="black"/>
<path d="M177.953 92.7668C181.763 92.7668 185.574 92.7668 189.402 92.7668C189.402 94.2131 189.402 95.6248 189.402 97.0571C183.528 97.0571 177.665 97.0571 171.779 97.0571C171.768 96.9722 171.751 96.8924 171.751 96.8126C171.75 95.5335 171.754 94.2545 171.746 92.9754C171.744 92.7775 171.829 92.6357 171.931 92.4868C175.202 87.7328 178.471 82.978 181.74 78.2235C182.207 77.5442 182.675 76.8653 183.142 76.1854C183.199 76.1019 183.25 76.0141 183.335 75.8778C179.451 75.8778 175.622 75.8778 171.769 75.8778C171.769 74.4311 171.769 73.0219 171.769 71.5934C177.649 71.5934 183.512 71.5934 189.4 71.5934C189.406 71.6905 189.418 71.7821 189.418 71.8736C189.419 73.1211 189.414 74.3685 189.423 75.6157C189.425 75.8321 189.351 75.9967 189.233 76.1669C185.726 81.2834 182.22 86.4018 178.715 91.52C178.447 91.911 178.18 92.3027 177.913 92.694C177.926 92.7182 177.94 92.7426 177.953 92.7668Z" fill="black"/>
<path d="M162.839 72.4251C164.597 72.4251 166.327 72.4251 168.055 72.4251C168.121 72.669 168.132 96.7408 168.064 97.0542C166.328 97.0542 164.59 97.0542 162.839 97.0542C162.839 88.8424 162.839 80.654 162.839 72.4251Z" fill="black"/>
<path d="M162.692 69.1611C162.692 67.2655 162.692 65.391 162.692 63.4996C164.582 63.4996 166.456 63.4996 168.343 63.4996C168.343 65.3923 168.343 67.2668 168.343 69.1611C166.463 69.1611 164.598 69.1611 162.692 69.1611Z" fill="black"/>
</svg>
